HIERARCHY
ROOT hip
{
  OFFSET 0.0 0.0 0.0
  CHANNELS 6 Xposition Yposition Zposition Zrotation Yrotation Xrotation
  JOINT abdomen
  {
    OFFSET 0.0 20.6881 -0.73152
    CHANNELS 3 Zrotation Xrotation Yrotation
    JOINT chest
    {
      OFFSET 0.0 11.7043 -0.48768
      CHANNELS 3 Zrotation Xrotation Yrotation
      JOINT neck
      {
        OFFSET 0.0 22.1894 -2.19456
        CHANNELS 3 Zrotation Xrotation Yrotation
        JOINT head
        {
          OFFSET -0.24384 7.07133 1.2192
          CHANNELS 3 Zrotation Xrotation Yrotation
          JOINT leftEye
          {
            OFFSET 4.14528 8.04674 8.04672
            CHANNELS 3 Zrotation Xrotation Yrotation
            End Site
            {
              OFFSET 1.0 0.0 0.0
            }
          }
          JOINT rightEye
          {
            OFFSET -3.6576 8.04674 8.04672
            CHANNELS 3 Zrotation Xrotation Yrotation
            End Site
            {
              OFFSET 1.0 0.0 0.0
            }
          }
        }
      }
      JOINT rCollar
      {
        OFFSET -2.68224 19.2634 -4.8768
        CHANNELS 3 Zrotation Xrotation Yrotation
        JOINT rShldr
        {
          OFFSET -8.77824 -1.95073 1.46304
          CHANNELS 3 Zrotation Xrotation Yrotation
          JOINT rForeArm
          {
            OFFSET -28.1742 -1.7115 0.48768
            CHANNELS 3 Zrotation Xrotation Yrotation
            JOINT rHand
            {
              OFFSET -22.5879 0.773209 7.07136
              CHANNELS 3 Zrotation Xrotation Yrotation
              JOINT rThumb1
              {
                OFFSET -1.2192 -0.487915 3.41376
                CHANNELS 3 Zrotation Xrotation Yrotation
                JOINT rThumb2
                {
                  OFFSET -3.37035 -0.52449 3.41376
                  CHANNELS 3 Zrotation Xrotation Yrotation
                  End Site
                  {
                    OFFSET -1.78271 -1.18214 1.43049
                  }
                }
              }
              JOINT rIndex1
              {
                OFFSET -7.75947 0.938293 5.60832
                CHANNELS 3 Zrotation Xrotation Yrotation
                JOINT rIndex2
                {
                  OFFSET -2.54057 -0.884171 1.56538
                  CHANNELS 3 Zrotation Xrotation Yrotation
                  End Site
                  {
                    OFFSET -1.62519 -0.234802 1.16502
                  }
                }
              }
              JOINT rMid1
              {
                OFFSET -8.24714 1.18213 3.41376
                CHANNELS 3 Zrotation Xrotation Yrotation
                JOINT rMid2
                {
                  OFFSET -3.10165 -0.590103 1.0647
                  CHANNELS 3 Zrotation Xrotation Yrotation
                  End Site
                  {
                    OFFSET -2.48547 -0.328903 0.83742
                  }
                }
              }
              JOINT rRing1
              {
                OFFSET -8.82822 0.546677 1.51678
                CHANNELS 3 Zrotation Xrotation Yrotation
                JOINT rRing2
                {
                  OFFSET -2.60934 -0.819778 -0.0198488
                  CHANNELS 3 Zrotation Xrotation Yrotation
                  End Site
                  {
                    OFFSET -2.33842 -0.294052 0.168128
                  }
                }
              }
              JOINT rPinky1
              {
                OFFSET -8.27202 -0.0477905 -0.4584
                CHANNELS 3 Zrotation Xrotation Yrotation
                JOINT rPinky2
                {
                  OFFSET -1.82734 -0.647385 -0.700984
                  CHANNELS 3 Zrotation Xrotation Yrotation
                  End Site
                  {
                    OFFSET -1.69225 -0.51767 -0.607171
                  }
                }
              }
            }
          }
        }
      }
      JOINT lCollar
      {
        OFFSET 2.68224 19.2634 -4.8768
        CHANNELS 3 Zrotation Xrotation Yrotation
        JOINT lShldr
        {
          OFFSET 8.77824 -1.95073 1.46304
          CHANNELS 3 Zrotation Xrotation Yrotation
          JOINT lForeArm
          {
            OFFSET 28.1742 -1.7115 0.48768
            CHANNELS 3 Zrotation Xrotation Yrotation
            JOINT lHand
            {
              OFFSET 22.5879 0.773209 7.07136
              CHANNELS 3 Zrotation Xrotation Yrotation
              JOINT lThumb1
              {
                OFFSET 1.2192 -0.487915 3.41376
                CHANNELS 3 Zrotation Xrotation Yrotation
                JOINT lThumb2
                {
                  OFFSET 3.37035 -0.52449 3.41376
                  CHANNELS 3 Zrotation Xrotation Yrotation
                  End Site
                  {
                    OFFSET 1.78271 -1.18214 1.43049
                  }
                }
              }
              JOINT lIndex1
              {
                OFFSET 7.75947 0.938293 5.60832
                CHANNELS 3 Zrotation Xrotation Yrotation
                JOINT lIndex2
                {
                  OFFSET 2.54057 -0.884171 1.56538
                  CHANNELS 3 Zrotation Xrotation Yrotation
                  End Site
                  {
                    OFFSET 1.62519 -0.234802 1.16502
                  }
                }
              }
              JOINT lMid1
              {
                OFFSET 8.24714 1.18213 3.41376
                CHANNELS 3 Zrotation Xrotation Yrotation
                JOINT lMid2
                {
                  OFFSET 3.10165 -0.590103 1.0647
                  CHANNELS 3 Zrotation Xrotation Yrotation
                  End Site
                  {
                    OFFSET 2.48547 -0.328903 0.83742
                  }
                }
              }
              JOINT lRing1
              {
                OFFSET 8.82822 0.546677 1.51678
                CHANNELS 3 Zrotation Xrotation Yrotation
                JOINT lRing2
                {
                  OFFSET 2.60934 -0.819778 -0.0198488
                  CHANNELS 3 Zrotation Xrotation Yrotation
                  End Site
                  {
                    OFFSET 2.33842 -0.294052 0.168128
                  }
                }
              }
              JOINT lPinky1
              {
                OFFSET 8.27202 -0.0477905 -0.4584
                CHANNELS 3 Zrotation Xrotation Yrotation
                JOINT lPinky2
                {
                  OFFSET 1.82734 -0.647385 -0.700984
                  CHANNELS 3 Zrotation Xrotation Yrotation
                  End Site
                  {
                    OFFSET 1.69225 -0.51767 -0.607171
                  }
                }
              }
            }
          }
        }
      }
    }
  }
  JOINT rButtock
  {
    OFFSET -8.77824 4.35084 1.2192
    CHANNELS 3 Zrotation Xrotation Yrotation
    JOINT rThigh
    {
      OFFSET 0.0 -1.70687 -2.19456
      CHANNELS 3 Zrotation Xrotation Yrotation
      JOINT rShin
      {
        OFFSET 0.0 -36.8199 0.73152
        CHANNELS 3 Zrotation Xrotation Yrotation
        JOINT rFoot
        {
          OFFSET 0.73152 -45.1104 -5.12064
          CHANNELS 3 Zrotation Xrotation Yrotation
          End Site
          {
            OFFSET -1.1221 -3.69964 12.103
          }
        }
      }
    }
  }
  JOINT lButtock
  {
    OFFSET 8.77824 4.35084 1.2192
    CHANNELS 3 Zrotation Xrotation Yrotation
    JOINT lThigh
    {
      OFFSET 0.0 -1.70687 -2.19456
      CHANNELS 3 Zrotation Xrotation Yrotation
      JOINT lShin
      {
        OFFSET 0.0 -36.8199 0.73152
        CHANNELS 3 Zrotation Xrotation Yrotation
        JOINT lFoot
        {
          OFFSET -0.73152 -45.1104 -5.12064
          CHANNELS 3 Zrotation Xrotation Yrotation
          End Site
          {
            OFFSET 1.1221 -3.69964 12.103
          }
        }
      }
    }
  }
}
MOTION
Frames: 4
Frame Time: 0.00833333
0.0 85.7222 0.0 -13.3678 54.762 -15.0866 4.82513 9.26008 -1.92886 -2.90719 -2.26444 -0.574823 0.534482 15.9269 -1.77995 3.90178 -24.07 -2.5924 -0.0 0.0 0.0 -0.0 0.0 0.0 0.0 0.0 0.0 0.0 0.0 0.0 0.0 0.0 0.0 -0.403592 17.7691 2.58142 -2.8361e-10 7.70957e-10 1.70152e-09 -4.67291e-10 1.32503e-09 2.94513e-09 -2.83607e-10 7.70966e-10 1.70149e-09 7.73091 5.47488 0.417314 -2.83613e-10 7.70956e-10 1.70152e-09 2.90554 0.965183 0.102902 -2.83609e-10 7.70956e-10 1.70153e-09 10.2786 0.731801 0.0259123 -2.83614e-10 7.7096e-10 1.70153e-09 2.22167 -0.733487 -0.20892 0.0 0.0 0.0 0.0 0.0 0.0 0.0 0.0 0.0 0.0188147 -3.91289 0.550785 -1.79991e-10 -1.16766e-09 -3.46707e-09 -2.9982e-10 -2.01755e-09 -5.99026e-09 -1.79991e-10 -1.16765e-09 -3.46707e-09 -7.73091 5.47488 -0.417314 -1.7999e-10 -1.16765e-09 -3.46707e-09 -2.90554 0.965183 -0.102902 -1.80001e-10 -1.16765e-09 -3.46707e-09 -10.2786 0.731801 -0.0259123 -1.79989e-10 -1.16765e-09 -3.46707e-09 -2.22167 -0.733487 0.20892 -2.03217e-16 0.0 -3.88251e-19 9.71873 -2.94184 4.00547 -0.141066 20.7089 0.287013 -2.79945 -5.7422 -12.5768 2.03217e-16 0.0 3.88251e-19 5.21412 -25.1101 7.30029 0.473145 45.5867 -0.636132 0.662953 2.98724 -3.2077
0.9621000000000066 85.7118 0.9948000000000015 -13.5354 54.8182 -15.3225 4.73404 9.26812 -1.85705 -2.94335 -2.2401 -0.564938 0.520403 15.919 -1.82163 3.94941 -24.0439 -2.6644 -0.0 0.0 0.0 -0.0 0.0 0.0 0.0 0.0 0.0 0.0 0.0 0.0 0.0 0.0 0.0 -0.398555 17.6623 2.56487 -1.49711e-09 -8.01094e-10 8.25741e-10 -2.57327e-09 -1.41403e-09 1.45038e-09 -1.4971e-09 -8.01084e-10 8.25712e-10 7.73091 5.47488 0.417314 -1.49711e-09 -8.01091e-10 8.25741e-10 2.90554 0.965183 0.102902 -1.49711e-09 -8.01092e-10 8.25743e-10 10.2786 0.731801 0.0259123 -1.49711e-09 -8.01091e-10 8.25757e-10 2.22167 -0.733487 -0.20892 0.0 0.0 0.0 0.0 0.0 0.0 0.0 0.0 0.0 0.0208121 -4.10735 0.578255 -6.97244e-10 1.48341e-10 -1.64122e-09 -1.20108e-09 2.56645e-10 -2.83754e-09 -6.97245e-10 1.48349e-10 -1.64122e-09 -7.73091 5.47488 -0.417314 -6.97244e-10 1.48345e-10 -1.64122e-09 -2.90554 0.965183 -0.102902 -6.97255e-10 1.48349e-10 -1.64122e-09 -10.2786 0.731801 -0.0259123 -6.97243e-10 1.48348e-10 -1.64122e-09 -2.22167 -0.733487 0.20892 -2.03217e-16 0.0 -3.88251e-19 9.81208 -2.96974 3.62146 -0.153333 22.0116 0.291032 -2.71191 -5.44545 -12.4115 2.03217e-16 0.0 3.88251e-19 5.08649 -25.2843 7.41183 0.443318 44.4461 -0.565669 0.68293 3.13892 -3.46226
1.9220000000000113 85.6872 1.9747000000000021 -13.6306 54.855 -15.4948 4.57932 9.2788 -1.78185 -2.9757 -2.21415 -0.556249 0.514599 15.9103 -1.85407 3.99322 -24.0215 -2.71904 -0.0 0.0 0.0 -0.0 0.0 0.0 0.0 0.0 0.0 0.0 0.0 0.0 0.0 0.0 0.0 -0.393624 17.5571 2.54858 -3.80411e-09 -4.1877e-09 -4.163e-10 -6.57036e-09 -7.30841e-09 -6.60729e-10 -3.80411e-09 -4.18769e-09 -4.16327e-10 7.73091 5.47488 0.417314 -3.80411e-09 -4.18769e-09 -4.16302e-10 2.90554 0.965183 0.102902 -3.80411e-09 -4.1877e-09 -4.16306e-10 10.2786 0.731801 0.0259123 -3.80411e-09 -4.1877e-09 -4.16281e-10 2.22167 -0.733487 -0.20892 0.0 0.0 0.0 0.0 0.0 0.0 0.0 0.0 0.0 0.0224334 -4.26662 0.600759 -1.37152e-09 2.59274e-09 1.59065e-09 -2.37904e-09 4.48079e-09 2.74388e-09 -1.37153e-09 2.59274e-09 1.59066e-09 -7.73091 5.47488 -0.417314 -1.37153e-09 2.59274e-09 1.59066e-09 -2.90554 0.965183 -0.102902 -1.37154e-09 2.59274e-09 1.59066e-09 -10.2786 0.731801 -0.0259123 -1.37152e-09 2.59274e-09 1.59066e-09 -2.22167 -0.733487 0.20892 -2.03217e-16 0.0 -3.88251e-19 9.84292 -3.12872 3.26932 -0.166744 23.4859 0.296764 -2.63403 -5.16373 -12.2717 2.03217e-16 0.0 3.88251e-19 4.90242 -25.3298 7.53812 0.412096 43.1593 -0.49057 0.705838 3.2815 -3.73407
2.8803000000000054 85.6461 2.9418000000000006 -13.6538 54.8714 -15.6065 4.36774 9.29309 -1.70398 -3.00338 -2.18696 -0.54848 0.515767 15.901 -1.87698 4.03136 -24.0008 -2.7562 -0.0 0.0 0.0 -0.0 0.0 0.0 0.0 0.0 0.0 0.0 0.0 0.0 0.0 0.0 0.0 -0.388894 17.4555 2.53286 -6.07232e-09 -7.52626e-09 -1.57098e-09 -1.04993e-08 -1.31187e-08 -2.62158e-09 -6.07232e-09 -7.52625e-09 -1.571e-09 7.73091 5.47488 0.417314 -6.07232e-09 -7.52624e-09 -1.57098e-09 2.90554 0.965183 0.102902 -6.07232e-09 -7.52625e-09 -1.57099e-09 10.2786 0.731801 0.0259123 -6.07232e-09 -7.52626e-09 -1.57096e-09 2.22167 -0.733487 -0.20892 0.0 0.0 0.0 0.0 0.0 0.0 0.0 0.0 0.0 0.023707 -4.39083 0.618313 -2.00313e-09 4.96261e-09 4.69354e-09 -3.48264e-09 8.57614e-09 8.10264e-09 -2.00314e-09 4.96262e-09 4.69354e-09 -7.73091 5.47488 -0.417314 -2.00314e-09 4.96261e-09 4.69355e-09 -2.90554 0.965183 -0.102902 -2.00315e-09 4.96261e-09 4.69355e-09 -10.2786 0.731801 -0.0259123 -2.00313e-09 4.96261e-09 4.69355e-09 -2.22167 -0.733487 0.20892 -2.03217e-16 0.0 -3.88251e-19 9.81198 -3.39938 2.95816 -0.181731 25.0733 0.304546 -2.56483 -4.90183 -12.1536 2.03217e-16 0.0 3.88251e-19 4.67034 -25.2568 7.6738 0.380281 41.7881 -0.4144 0.73187 3.40823 -4.0093
